<?xml version="1.0" encoding="UTF-8"?>
<svg id="Layer_2" data-name="Layer 2" xmlns="http://www.w3.org/2000/svg" viewBox="0 0 95.15 65.92">
  <defs>
    <style>
      .cls-1 {
        fill: #fff;
        fill-rule: evenodd;
      }
    </style>
  </defs>
  <g id="logo_gucci">
    <path class="cls-1" d="M95.15,32.96c0,18.2-14.76,32.96-32.96,32.96-5.25,0-10.21-1.23-14.62-3.41-4.4,2.17-9.38,3.41-14.61,3.41C14.76,65.92,0,51.16,0,32.96S14.76,0,32.96,0c5.25,0,10.2,1.22,14.61,3.4,4.41-2.18,9.37-3.4,14.63-3.4,18.2,0,32.96,14.76,32.96,32.96h0ZM88.65,32.96c0-14.61-11.84-26.45-26.45-26.45-2.78,0-5.46.43-7.98,1.23,5.05,4.23,8.73,9.88,10.53,16.42h0l-6.83.02h0c-1.93-5.47-5.6-10.1-10.35-13.25-4.74,3.15-8.4,7.79-10.33,13.25h0l-6.83-.02h0c1.79-6.52,5.54-12.22,10.57-16.45-2.51-.79-5.25-1.2-8.02-1.2-14.61,0-26.45,11.84-26.45,26.45s11.84,26.45,26.45,26.45c2.76,0,5.42-.42,7.92-1.21-6.56-5.51-10.82-13.54-11.54-22.59h15.68v6.46l-7.63.11h0c1.97,5.28,5.57,9.77,10.2,12.84,4.64-3.07,8.2-7.54,10.17-12.84h0l-7.63-.11v-6.46h15.68c-.72,9.05-5.09,17.05-11.65,22.56,2.53.81,5.23,1.24,8.03,1.24,14.61,0,26.45-11.84,26.45-26.45h0Z"/>
  </g>
</svg>