<?xml version="1.0" encoding="UTF-8"?>
<svg id="Layer_2" data-name="Layer 2" xmlns="http://www.w3.org/2000/svg" viewBox="0 0 103.61 61.11">
  <defs>
    <style>
      .cls-1 {
        fill: #fff;
      }
    </style>
  </defs>
  <g id="logo_hyundai">
    <g>
      <path class="cls-1" d="M15.37,13.96c-1.96,2.97-2.6,6.18-1.52,9.64.87,2.78,2.66,4.95,4.82,6.82,2.89,2.52,6.23,4.27,9.77,5.66,6.89,2.7,14.07,3.84,21.4,4.1,3.57.12,7.14-.01,10.69-.39,3.68-.41,7.31-1.04,10.87-2.04,4.63-1.29,9.05-3.05,13.04-5.77,2.46-1.69,4.65-3.64,6.18-6.24,1.51-2.52,2.1-5.23,1.47-8.15-.52-2.4-1.77-4.4-3.41-6.18-2.49-2.68-5.52-4.58-8.8-6.13-3.91-1.86-8.02-3.07-12.26-3.91-2.95-.58-5.93-.99-8.94-1.18-.69-.04-1.36-.11-2.04-.17h-6.58c-.11.02-.22.07-.33.08-1.13.07-2.24.12-3.36.23-3.54.32-7.05.88-10.49,1.75-4.75,1.19-9.33,2.85-13.5,5.42-2.75,1.71-5.21,3.74-7,6.48M61.19,27.82c-.53,3.25-2.1,5.95-4.56,8.12-.92.81-2.05,1.12-3.22,1.21-.83.07-1.67.09-2.17.12-3.04-.05-5.72-.34-8.4-.7-2.78-.38-5.54-.85-8.23-1.61-.93-.26-1.85-.56-2.73-.89-.74-.3-.76-.75-.15-1.24,5.83-4.65,12.45-7.62,19.67-9.28,1.88-.44,3.78-.78,5.73-.64,1.46.1,2.79.52,3.59,1.9.57.93.64,1.98.47,3.01M79.54,12.66c.32-.62.63-1.25.95-1.86.42-.79.84-.98,1.63-.58,3.75,1.85,6.06,4.79,6.74,8.96.05.29,0,.61,0,.91.03,2.14-.75,3.96-2.02,5.61-1.71,2.24-3.94,3.85-6.38,5.2-4.17,2.31-8.63,3.82-13.33,4.63-.2.02-.58-.03-.6-.12-.08-.23-.05-.55.07-.74.6-.86,1.25-1.7,1.89-2.54,2.29-3.03,4.23-6.27,6.03-9.6,1.76-3.25,3.35-6.57,5.02-9.88M48.12,5.11c1.44-1.51,3.23-2.16,5.3-2.22,5.21-.18,10.32.47,15.36,1.72,1.36.33,2.72.76,4.07,1.19.43.14.83.36,1.21.59.46.32.49.74.11,1.16-.25.27-.55.52-.88.71-5.28,3.27-10.87,5.98-16.77,7.96-2.25.73-4.52,1.31-6.89,1.42-1.02.05-2.03-.07-2.98-.48-1.53-.7-2-1.96-1.97-3.87.26-2.85,1.17-5.8,3.44-8.19M36.73,4.88c.79-.2,1.64-.22,2.47-.23.7,0,.86.34.44.9-1.15,1.53-2.34,2.99-3.47,4.52-4.06,5.52-7.58,11.33-9.92,17.8-.21.6-.5,1.17-.84,1.69-.46.74-.98.87-1.8.6-.99-.37-1.78-1.01-2.53-1.71-1.66-1.61-3.15-3.36-3.92-5.58-.3-.87-.41-1.8-.62-2.71.05-.02.08-.03.12-.03.03-2.27.99-4.17,2.42-5.87,1.63-1.96,3.69-3.44,5.88-4.71,3.68-2.15,7.66-3.55,11.76-4.68"/>
      <path class="cls-1" d="M78.5,46.05c-.28-.04-.58-.06-.87-.06h-10.97c-.15,0-.31.02-.51.03v14.52c0,.18-.02.38-.03.56h12.46c.16-.06.33-.12.48-.18.95-.32,1.5-1,1.67-1.96.09-.38.11-.75.11-1.13.01-1.85,0-3.67,0-5.5,0-1.09.03-2.17-.02-3.25-.06-1.87-.75-2.74-2.34-3.05M76.41,56.06c-.05,1.09-.35,1.37-1.42,1.39h-4.36v-7.85c1.57,0,3.12-.02,4.67.01.66.02.92.34,1.04.99.05.21.08.43.08.64,0,1.53,0,3.07,0,4.61,0,.08,0,.14,0,.21"/>
      <path class="cls-1" d="M97.38,46.5v-.52c-.2,0-.33-.03-.46-.03-3.48.02-6.96.03-10.45.05-.15,0-.29.02-.43.03-1.83.11-3.12,1.34-3.12,3.15-.04,3.99-.02,7.96-.02,11.93h4.29v-3.31h5.79v3.31h4.39c0-.17-.01-.35-.01-.52,0-4.69,0-9.4,0-14.09M92.98,53.98h-5.79c0-1.1-.03-2.19.02-3.29,0-.57.4-.97.98-1,1.14-.08,2.3-.06,3.45-.08.43,0,.88,0,1.34,0v4.36Z"/>
      <path class="cls-1" d="M46.98,45.95c-1.19,0-2.4.02-3.59-.01-.42,0-.52.14-.51.53.02,3.28.02,6.59,0,9.88,0,.85-.26,1.09-1.09,1.1h-4.66v-11.46h-4.47v.61c0,2.91-.01,5.82,0,8.72,0,1.94,0,3.86.01,5.79h12.56s.08-.07.14-.08c1.23-.21,1.84-.99,2.01-2.17.06-.36.1-.73.1-1.1.02-3.75.02-7.53.02-11.27v-.52c-.19,0-.36-.03-.51-.03"/>
      <path class="cls-1" d="M64.17,52.13c0-1.18-.02-2.36-.09-3.51-.09-1.25-.76-2.11-1.86-2.4-.59-.15-1.2-.26-1.8-.26-3.56-.04-7.12-.03-10.67-.03-.12,0-.22.01-.39.03v4.31c0,3.62,0,7.22-.01,10.84h4.48c0-3.78,0-7.55-.02-11.33,0-.04.02-.07.04-.14.08-.02.16-.04.24-.04,1.48,0,2.99-.01,4.47,0,.7,0,1,.3,1,1,0,3.43,0,6.87,0,10.3,0,.08-.02.15-.04.21h4.67c-.02-.08-.04-.17-.04-.25.02-2.93.02-5.84.02-8.73"/>
      <path class="cls-1" d="M10.31,45.95c-.3,0-.26.21-.26.41v5h-5.77v-5.4h-.55c-1.24-.01-2.48-.02-3.73-.03v15.19h4.31v-5.95h5.8v5.95h4.48s0-.08,0-.12v-14.68c0-.1-.03-.22-.05-.35-1.44-.01-2.84,0-4.24-.01"/>
      <path class="cls-1" d="M27.81,45.97c-.14,0-.33.16-.42.29-1.12,1.54-2.2,3.1-3.32,4.64-.07.13-.17.23-.29.39-.12-.17-.18-.27-.26-.39-1-1.52-2.01-3.05-3.01-4.58-.14-.2-.27-.33-.55-.33-1.37,0-2.75-.02-4.12-.04h-.56c.16.24.24.37.33.49,1.62,2.44,3.21,4.91,4.9,7.32.71,1,1.05,2,.96,3.25-.1,1.36-.04,2.74-.05,4.11h4.48c0-1.85,0-3.71.02-5.57,0-.23.08-.49.21-.69,1.95-2.82,3.9-5.65,5.86-8.47.08-.11.15-.23.23-.37-.08-.04-.11-.06-.16-.06-1.41,0-2.84-.03-4.26,0"/>
      <path class="cls-1" d="M99.42,46.52c.02,4.67.02,9.36.02,14.03,0,.18-.04.38-.04.56h4.21v-15.09c-1.2-.04-2.42-.02-3.64-.08-.45-.02-.55.15-.55.58"/>
    </g>
  </g>
</svg>