<?xml version="1.0" encoding="UTF-8"?>
<svg id="Layer_2" data-name="Layer 2" xmlns="http://www.w3.org/2000/svg" viewBox="0 0 140.5 58.1">
  <defs>
    <style>
      .cls-1 {
        fill: #fff;
        fill-rule: evenodd;
      }
    </style>
  </defs>
  <g id="logo_disney">
    <g>
      <path class="cls-1" d="M70.68,6.34c.98.05,1.87.41,2.59,1.04.98.93,1.24,2.49.78,3.73-1.81,3.73-6.12,6.22-9.07,7.05-1.76.41-3.99.41-5.6-.21-.78.47-1.43,1.97-2.38,1.35-1.38-1.07-.18-2.75-.98-3.95-.16-.25-.58-.26-.78-.67-1.09-2.38.26-4.66,1.76-6.48,2.51-2.79,9.69-5.91,13.68-1.87h0ZM62.34,8.21c-1.4.26-2.98.87-3.84,1.87-.86,1-1.4,1.97-.88,3.01,1.81-1.35,2.69-3.21,4.72-4.35,0-.21.31-.36,0-.52h0ZM70.78,8.72c-3.58-.31-6.27,2.38-8.81,4.98-.16.41-1.09.88-.36,1.35,3.42.31,6.69-.67,9.17-2.95.73-.67,1.24-1.55.88-2.49-.16-.36-.52-.73-.88-.88h0Z"/>
      <path class="cls-1" d="M101.78,24.17c1.66,4.04,3.06,10.42,0,14.3-.83.93-2.28,1.79-3.21,1.09-3.42-2.75-4.87-6.69-7-10.21-.31-.16-.31.26-.47.41-.78,3.58.67,8.24-1.76,11.04-.93.16-1.81-.32-2.12-1.24-1.19-3.68.05-7.52.36-11.2.73-1.87,1.04-4.04,2.64-5.44,2.59,1.04,3.84,3.94,5.34,6.06,1.09,1.61,1.97,3.42,3.21,4.87,1.09-.47.55-1.89.52-2.75-.41-3.37-1.35-6.48-2.23-9.69-.05-.83-.52-2.23.36-2.75,2.33,1.04,3.32,3.47,4.35,5.49h0Z"/>
      <path class="cls-1" d="M86.13,22.93c0,.78-.62,1.75-1.14,1.87-4.98.78-10.52.31-15.19,1.87-.16.57.52.67.88.83,3.99.62,8.19.78,12.08,1.76,2.06.52,2.8,2.95,2.95,4.98.1,1.59-.52,3.52-2.07,4.61-3.84,2.44-9.69,2.33-13.58.1-1.49-.83-2.9-2.18-3.01-3.84,0-1.32.57-2.35,1.5-2.85,3.73-1.5,8.34-.67,11.56,1.24.21,1.04-.92.98-1.45,1.35-3.58,2.07-6.27-2.33-9.59-.73-.47.31-.8,1.18-.26,1.45,4.09,1.81,8.66.52,12.7-.62.47-.16,1.04-.62,1.09-1.09-.16-1.66-2.02-2.02-3.21-2.49-3.52-.88-7.41-.88-11.2-1.24-.73-.16-1.65-.66-1.87-1.24-.41-1.24-.41-2.95.52-3.99,4.82-4.25,12.13-3.89,18.24-2.75.41.16.88.31,1.04.78h0Z"/>
      <path class="cls-1" d="M63.48,24.9c.47,4.98.73,9.59.62,14.82-.1.67-.88.83-1.4,1.09-.83.16-1.9-.02-2.23-.47-1.19-1.92-.78-4.51-.88-6.84.16-3.68.1-7.67,1.14-11.09.2-.5.78-.93,1.24-.62,1.24.62,1.45,1.87,1.5,3.11h0Z"/>
      <path class="cls-1" d="M121.06,24.17c.25.42.51,1.07,0,1.35-2.33,1.04-5.49.57-8.19.88-.73.62-1.3,1.66-1.04,2.59.26.16.49.39.78.36,1.66.1,4.15-.78,5.23.78.27.46-.03,2.19-.78,2.23-2.02.26-5.35-.25-6.32.26-1.24.83-1.14,2.44-1.61,3.73.88.57,1.81-.01,2.85-.16,1.92-.31,4.04-.88,5.96-.47.36.67.88,1.4.52,2.23-3.27,2.59-7.48,5.25-11.97,3.37-1.68-.76-2.44-3.32-1.87-5.49.36-1.56,1.97-3.06.98-4.72-.16-.73.26-1.35.88-1.5,1.71,0,1.35-2.12,2.23-3.11-.98-1.09-3.47-1.04-3.21-3.21,1.19-.62,2.64-.41,3.99-.62,3.06-.62,6.48-.98,9.59-.62.62.13,1.45,1.35,1.97,2.13h0Z"/>
      <path class="cls-1" d="M47.05,12.35c4.78,3.91,10.99,10.57,10.21,18.24-.93,6.06-7.36,10.63-12.8,12.08-5.29,1.55-11.92,1.4-17.31.16-.36.98-.73,2.18-1.87,2.59-.73.26-1.66.1-2.23-.36-1.61-1.5-.31-4.41-2.64-5.34-4.56-1.92-9.49-5.7-11.82-10.37-.31-.93.05-1.87.62-2.59,3.58-2.85,8.09-3.99,12.59-4.87.26.1.16-.26.36-.36.26-3.11.36-6.27,1.35-9.07.22-.39.78-.52,1.14-.26,2.85,2.18,1.5,6.27,2.75,9.23,5.44.26,10.88.52,15.19,3.58,1.45,1.19,1.81,3.47,1.35,4.77-.46,1.3-1.97,2.23-3.37,2.33-.93,0-2.7.09-2.59-.62s3.17-1.88,2.23-2.85c-1.35-1.4-8.13-2.23-12.33-2.75-.52-.1-.99.05-.99.62-.1,3.94-.41,8.29.26,12.08.05.26.36.57.62.62,7.41,1.19,15.24.52,21.04-3.73,2.7-2.18,3.58-5.24,3.11-8.6-2.33-9.38-12.13-15.03-20.16-18.66C23.93,4.79,15.27,3.02,6,3.49c-1.48.11-3.82.62-3.84,1.14s2.65.36,2.33,1.35c-.32.99-3.03.4-3.84.16-.8-.25-.73-1.4-.52-2.12C2.16.43,7.8.14,10.35.02c14.1-.36,27.73,5.01,36.7,12.34h0ZM21.65,26.24c-3.58.05-7.36.41-10.68,1.66-.67.26-1.5.98-.98,1.87,1.35,1.81,3.27,3.3,5.08,4.35,1.81,1.05,4.2,2.38,6.38,2.7.52-3.37.52-6.69.47-10.16-.21-.1,0-.31-.26-.41h0Z"/>
      <path class="cls-1" d="M128.78,21.53c-.16,4.51-4.35,7.31-4.35,11.82.16.16.26.36.47.26,3.37-3.68,6.69-8.91,11.61-10.47,1.3-.1,2.47,1.02,2.95,1.87,1.71,3.42,1.3,8.24-1.09,11.35-2.46,3.05-6.74,6.12-11.61,5.6-2.02,4.98-3.42,10.21-4.2,15.65-.41,1.09-1.4.1-2.02-.1-4.2-3.32-.75-12.1-.47-13.22.28-1.12,1.41-3.75,2.23-5.96-1.97-3.52-.73-7.77.88-11.04,1.24-2.18,2.95-4.35,4.98-6.01.26,0,.47.05.62.26h0ZM137.13,27.12c-.62-.1-.88.73-1.4.88-2.38,2.69-4.77,5.39-5.96,8.6,1.61.21,2.95-.83,4.35-1.4,2.38-1.5,3.89-3.99,3.73-6.84-.1-.47-.52-.83-.73-1.24h0Z"/>
    </g>
  </g>
</svg>