<?xml version="1.0" encoding="UTF-8"?>
<svg id="Layer_2" data-name="Layer 2" xmlns="http://www.w3.org/2000/svg" viewBox="0 0 209.29 17.93">
  <defs>
    <style>
      .cls-1 {
        fill: #fff;
      }
    </style>
  </defs>
  <g id="logo_oliverpeoples">
    <g>
      <path class="cls-1" d="M9.62,0c5.27,0,9.94,3.67,9.94,8.97,0,4.71-3.64,8.97-9.62,8.97C4.66,17.93,0,14.26,0,8.97,0,4.25,3.64,0,9.62,0ZM10.57,17.01c1.56,0,5.37-.95,5.37-6.97C15.95,5.32,13.26.92,8.99.92c-1.56,0-5.37.95-5.37,6.97,0,4.71,2.69,9.11,6.96,9.11Z"/>
      <path class="cls-1" d="M21.17,16.89c1.59-.02,2.03-.61,2.03-1.97V3.01c0-1.36-.44-1.94-2.03-1.97V.32c1.95.05,2.78.07,3.57.07s1.61-.02,3.57-.07v.73c-1.59.02-2.03.61-2.03,1.97v11.91c0,1.26.71,1.68,2.74,1.68,3.22,0,4.84-.41,5.32-3.43h.83l-.39,4.45c-2.47-.02-7.13-.07-11.79-.07-.73,0-1.37.02-1.81.07v-.73Z"/>
      <path class="cls-1" d="M36.14,16.89c1.59-.02,2.03-.61,2.03-1.97V3.01c0-1.36-.44-1.94-2.03-1.97V.32c1.95.05,2.78.07,3.57.07s1.61-.02,3.57-.07v.73c-1.59.02-2.03.61-2.03,1.97v11.91c0,1.36.44,1.94,2.03,1.97v.73c-1.95-.05-2.78-.07-3.57-.07s-1.61.02-3.57.07v-.73Z"/>
      <path class="cls-1" d="M62.59,1.04c-1.83.02-2.15.24-3.22,2.82l-5.76,13.92h-.63l-7.01-14.99c-.68-1.48-1.25-1.7-2.39-1.75V.32c1.68.05,2.81.07,3.91.07s2.22-.02,3.93-.07v.73h-.98c-.88,0-1.27.34-1.27.92,0,.24.07.44.93,2.33l4.37,9.7,3.69-10.38c.22-.66.42-1.21.42-1.65,0-.75-.66-.92-1.71-.92V.32c1.42.05,2.2.07,2.88.07s1.47-.02,2.86-.07v.73Z"/>
      <path class="cls-1" d="M62.88,16.89c1.59-.02,2.03-.61,2.03-1.97V3.01c0-1.36-.44-1.94-2.03-1.97V.32c.83.02,2.03.07,3.27.07,3.74,0,6.74-.05,9.01-.07l.1,4.08h-.78c-.39-2.33-1.44-3.16-4.37-3.16h-2.12v7.02h1.88c2.22,0,2.54-.8,2.71-2.33h.83c-.02.95-.05,1.85-.05,2.62,0,1.14.02,2.07.05,3.04h-.83c0-1.92-.61-2.41-2.74-2.41h-1.86v5.78c0,1.12.46,1.73,2.76,1.73,2.49,0,4.23-.46,4.81-3.52h.83c-.15,1.17-.37,3.21-.37,4.45-2.37-.02-5.47-.07-9.3-.07-1.88,0-3.35.05-3.83.07v-.73Z"/>
      <path class="cls-1" d="M77.85,16.89c1.59-.02,2.03-.61,2.03-1.97V3.01c0-1.36-.44-1.94-2.03-1.97V.32c1.15.02,2.12.07,3.03.07,1.59,0,3.2-.07,4.79-.07,4.25,0,5.59,2.11,5.59,4.5,0,1.65-1.03,3.5-3.4,4.23l3.05,5.59c1.1,2.02,1.69,2.48,3.08,2.67v.58c-.37.02-.73.05-1.12.05-3.25,0-4.59-1.12-5.96-4.01l-.95-2.02c-1.03-2.16-1.37-2.33-3-2.36v5.37c0,1.36.44,1.94,2.03,1.97v.73c-1.95-.05-2.78-.07-3.57-.07s-1.61.02-3.56.07v-.73ZM82.95,8.65c.46.1,1.12.17,1.61.17,2.2,0,3.52-1,3.52-3.35,0-1.77-.9-4.42-4.08-4.42-.44,0-.71.02-1.05.1v7.51Z"/>
      <path class="cls-1" d="M101.46,16.89c1.59-.02,2.03-.61,2.03-1.97V3.01c0-1.36-.44-1.94-2.03-1.97V.32c.83.05,2.03.07,3.05.07,1.29,0,2.59-.07,3.88-.07,4.79,0,6.47,2.11,6.47,4.91s-1.86,4.52-6.35,4.52c-.71,0-1.56-.02-1.95-.07v5.25c0,1.36.44,1.94,2.03,1.97v.73c-1.95-.05-2.78-.07-3.57-.07s-1.61.02-3.57.07v-.73ZM106.56,8.65c.46.1,1.12.17,1.61.17,2.2,0,3.52-1,3.52-3.35,0-1.8-.9-4.42-4.08-4.42-.44,0-.71.02-1.05.1v7.51Z"/>
      <path class="cls-1" d="M115.99,16.89c1.59-.02,2.03-.61,2.03-1.97V3.01c0-1.36-.44-1.94-2.03-1.97V.32c.83.02,2.03.07,3.27.07,3.74,0,6.74-.05,9.01-.07l.1,4.08h-.78c-.39-2.33-1.44-3.16-4.37-3.16h-2.12v7.02h1.88c2.22,0,2.54-.8,2.71-2.33h.83c-.02.95-.05,1.85-.05,2.62,0,1.14.02,2.07.05,3.04h-.83c0-1.92-.61-2.41-2.73-2.41h-1.86v5.78c0,1.12.46,1.73,2.76,1.73,2.49,0,4.22-.46,4.81-3.52h.83c-.15,1.17-.37,3.21-.37,4.45-2.37-.02-5.47-.07-9.3-.07-1.88,0-3.35.05-3.83.07v-.73Z"/>
      <path class="cls-1" d="M141.17,0c5.27,0,9.94,3.67,9.94,8.97,0,4.71-3.64,8.97-9.62,8.97-5.27,0-9.94-3.67-9.94-8.97,0-4.71,3.64-8.97,9.62-8.97ZM142.12,17.01c1.56,0,5.37-.95,5.37-6.97,0-4.71-2.69-9.11-6.96-9.11-1.56,0-5.37.95-5.37,6.97,0,4.71,2.69,9.11,6.96,9.11Z"/>
      <path class="cls-1" d="M152.72,16.89c1.59-.02,2.03-.61,2.03-1.97V3.01c0-1.36-.44-1.94-2.03-1.97V.32c.83.05,2.03.07,3.05.07,1.29,0,2.59-.07,3.88-.07,4.79,0,6.47,2.11,6.47,4.91s-1.85,4.52-6.35,4.52c-.71,0-1.56-.02-1.95-.07v5.25c0,1.36.44,1.94,2.03,1.97v.73c-1.95-.05-2.78-.07-3.57-.07s-1.61.02-3.56.07v-.73ZM157.82,8.65c.46.1,1.12.17,1.61.17,2.2,0,3.52-1,3.52-3.35,0-1.8-.9-4.42-4.08-4.42-.44,0-.71.02-1.05.1v7.51Z"/>
      <path class="cls-1" d="M167.24,16.89c1.59-.02,2.03-.61,2.03-1.97V3.01c0-1.36-.44-1.94-2.03-1.97V.32c1.95.05,2.78.07,3.57.07s1.61-.02,3.57-.07v.73c-1.59.02-2.03.61-2.03,1.97v11.91c0,1.26.71,1.68,2.73,1.68,3.22,0,4.84-.41,5.32-3.43h.83l-.39,4.45c-2.47-.02-7.13-.07-11.79-.07-.73,0-1.37.02-1.81.07v-.73Z"/>
      <path class="cls-1" d="M182.21,16.89c1.59-.02,2.03-.61,2.03-1.97V3.01c0-1.36-.44-1.94-2.03-1.97V.32c.83.02,2.03.07,3.27.07,3.74,0,6.74-.05,9.01-.07l.1,4.08h-.78c-.39-2.33-1.44-3.16-4.37-3.16h-2.12v7.02h1.88c2.22,0,2.54-.8,2.71-2.33h.83c-.02.95-.05,1.85-.05,2.62,0,1.14.02,2.07.05,3.04h-.83c0-1.92-.61-2.41-2.73-2.41h-1.86v5.78c0,1.12.46,1.73,2.76,1.73,2.49,0,4.23-.46,4.81-3.52h.83c-.15,1.17-.37,3.21-.37,4.45-2.37-.02-5.47-.07-9.3-.07-1.88,0-3.34.05-3.83.07v-.73Z"/>
      <path class="cls-1" d="M197.67,12.93h.95c.59,2.82,2.98,4.08,4.66,4.08,2.39,0,3.56-1.53,3.56-2.87,0-3.89-8.91-3.69-8.91-9.09,0-1.24.71-5.05,6.15-5.05,1.32,0,3.15.15,4.52.63l.15,4.3h-.9c-.27-2.48-1.88-4.01-4.47-4.01-1.98,0-3.15,1.26-3.15,2.58,0,3.55,9.06,3.86,9.06,9.28,0,2.87-2.05,5.15-6.1,5.15-1.56,0-3.59-.32-5.32-.8l-.2-4.2Z"/>
    </g>
  </g>
</svg>