<?xml version="1.0" encoding="UTF-8"?>
<svg id="Layer_2" data-name="Layer 2" xmlns="http://www.w3.org/2000/svg" viewBox="0 0 82.97 54.82">
  <defs>
    <style>
      .cls-1 {
        fill: #fff;
        fill-rule: evenodd;
      }
    </style>
  </defs>
  <g id="logo_H_M" data-name="logo_H&amp;amp;M">
    <g>
      <path class="cls-1" d="M32.71,20.42c1.66.01,4.53-.9,5.08.48.68,1.69-1.51,2.59-2.26,3.39-1.73,1.86-2.69,4.42-6.05,4.68-2.88,7.46-5.63,15.08-8.31,23.07-.37,1.11-.63,2.69-1.69,2.74-.94.05-1.38-1.06-1.94-1.61-.97-.97-2.59-1.73-2.82-2.9-.15-.77.25-1.9.48-2.74,1.56-5.57,3.72-11.34,5.57-16.54-3.18.53-6.67,1.45-10,2.1-1.97,5.05-3.9,10.34-5.81,15.73-.51,1.45-1.32,4.28-3.31,3.63-1.75-.57-.19-3.9.08-4.68,1.68-4.84,3.26-9.49,5.08-14.03-.58-.25-1.26-.34-1.77-.65-.92-.56-1.55-2.03-2.66-2.74-.92-.59-2.68-.87-2.34-2.42.15-.66,1.49-1,2.18-1.21,2.67-.81,5.31-1.44,7.99-2.1,2.57-6.39,5.29-13.37,7.99-19.92.39-.95.7-2.05,1.21-2.74.44-.6,1.88-1.75,2.9-1.05.77.52.22,2.32-.08,3.07-2.67,6.55-5.31,13.04-7.82,19.6,3.27-.65,6.52-1.33,9.84-1.94,1.81-4.62,4.22-10.25,6.29-15.16.6-1.43,1.25-4.09,2.42-4.68.63-.32,1.94-.56,2.82-.89.85-.31,1.87-.81,2.74-.89,3.01-.25.39,4.49,0,5.49-1.99,5.08-3.82,9.99-5.81,14.92Z"/>
      <path class="cls-1" d="M34.89,38.24c.12.74.47,1.25.56,2.02.53-.33,2.49-1.77,2.82-.16.29,1.43-1.1,2.43-1.69,3.39.25.86,1.02,2,.4,2.98-1.03.52-1.84-.29-2.02-1.13-.82.5-1.42,1.14-2.42,1.29-2.54.38-3.91-1.25-3.95-3.39-.06-3.03,2.39-4.42,3.63-6.13-.41-1.33-.78-2.2-.65-3.31.42-3.56,6.34-3.66,5.81.4-.23,1.78-1.74,2.6-2.5,4.03ZM33.92,35.26c.47-.11,1.09-.73,1.05-1.61-.88-.95-1.54.67-1.05,1.61ZM32.15,42.76c.06.02.16,0,.16.08.68-.1,1.11-.45,1.45-.89-.22-.53-.25-1.25-.65-1.61-.37.69-1.38,1.46-.97,2.42Z"/>
      <path class="cls-1" d="M72.56,14.21c-4.79,9.74-9.33,20.56-13.55,31.46-.51,1.32-.99,4.1-2.26,4.19-1.02.07-1.42-1.22-2.02-1.94-.93-1.13-2.1-1.9-2.58-3.23-.71-1.96-.52-4.66-.4-7.18.33-7.11,1.28-14.63,1.69-21.38-3.64,10.84-7.03,21.77-10.32,33.07-.41,1.42-1.01,3.74-2.9,3.23-1.89-.51-.02-5.19.24-6.13,3.86-13.79,7.78-26.93,12.58-39.93.38-1.03.75-2.25,1.21-2.82.78-.96,2.39-1.2,3.87-1.86.91-.4,3.43-1.71,4.44-.81.62.56.29,3.02.16,4.52-.92,10.86-3.18,19.76-3.39,31.46,3.92-10.55,8.99-20.88,13.79-31.14.69-1.48,1.46-3.19,2.58-3.79.4-.22,1.13-.29,1.69-.48,1.31-.45,2.78-1.33,4.03-1.37,2.21-.07,1.5,2.41,1.13,3.95-3.7,15.52-6.69,31.57-9.84,47.75-.23,1.2-.3,2.8-1.13,2.98-1.41.32-2.09-1.36-2.9-2.1-.88-.79-2.45-1.4-2.66-2.5-.22-1.15.46-3.53.65-4.68,1.74-10.6,3.82-21.02,5.89-31.3Z"/>
    </g>
  </g>
</svg>