<?xml version="1.0" encoding="UTF-8"?>
<svg id="Layer_2" data-name="Layer 2" xmlns="http://www.w3.org/2000/svg" viewBox="0 0 94.69 28.02">
  <defs>
    <style>
      .cls-1 {
        fill: #fff;
      }
    </style>
  </defs>
  <g id="logo_tods">
    <g>
      <path class="cls-1" d="M33.7,25.5c-3.59-.1-6.82-2.19-8.39-5.42-1-1.95-1.5-4.11-1.47-6.29-.12-3.51,1.27-6.9,3.82-9.32,1.65-1.52,3.8-2.37,6.04-2.39,3.59.1,6.82,2.19,8.39,5.42,1,1.95,1.5,4.11,1.48,6.29.12,3.57-1.31,7.01-3.94,9.43-1.63,1.45-3.74,2.26-5.93,2.28h0ZM33.7,0c-3.75-.12-7.39,1.29-10.1,3.89-2.7,2.6-4.24,6.19-4.27,9.95.02,3.75,1.56,7.34,4.27,9.94,2.7,2.6,6.34,4.01,10.1,3.89,3.75.12,7.39-1.29,10.1-3.89,2.7-2.6,4.24-6.19,4.27-9.94-.02-3.75-1.56-7.34-4.27-9.95C41.09,1.29,37.45-.11,33.7,0h0Z"/>
      <path class="cls-1" d="M22.09.58H.87c0,.39-.02.78-.07,1.17-.17,1-.44,1.99-.8,2.94,1.06-1.05,2.51-1.63,4-1.61h4.92v21.65c0,.35-.11.68-.29.97-.36.55-.87.97-1.46,1.23h6.82l-.03-.03c-.4-.45-.72-.96-.94-1.52-.09-.22-.14-.46-.15-.7V3.08h4.34c.36,0,.72.02,1.08.06.6.05,1.18.24,1.7.55.38.26.73.55,1.04.89,0-.68.08-1.37.26-2.03.21-.68.47-1.34.8-1.97h0Z"/>
      <path class="cls-1" d="M54.17,24.68V3.08c2.57-.06,5.13.03,7.69.26,1.3.12,2.58.47,3.77,1.03,1.4.7,2.48,1.91,3.04,3.37.57,1.55.88,3.19.92,4.85.03.53.04,1.06.04,1.59.03,2.3-.57,4.56-1.75,6.53-1.31,2.01-3.37,3.42-5.72,3.93-2.63.56-5.35.58-7.98.04h0ZM62.4.58h-13.31c.33.42.63.88.87,1.37.17.35.26.74.26,1.14v22.27c0,.2-.06.39-.18.56-.15.22-.34.42-.55.59-.19.15-.38.3-.58.44h12.15c5.11.17,9.82-2.77,11.9-7.44.72-1.81,1.07-3.75,1.04-5.7.14-2.6-.41-5.2-1.58-7.52-2.03-3.45-5.69-5.6-9.69-5.69-.11,0-.22,0-.33,0h0Z"/>
      <path class="cls-1" d="M73.39,3.3c0,.15.03.3.08.43.1.23.27.43.48.57.23.15.47.27.72.37.12.05.25.1.37.17.04.02.08.05.12.09l.08.08c.22.28.35.62.39.97.05.54,0,1.09-.15,1.62-.05.18-.11.36-.18.54-.02.06-.03.11-.04.17,0,.03,0,.07,0,.1v.05s.05.03.05.03h.04s.08-.04.08-.04c.07-.05.15-.11.21-.18l.07-.08c.15-.19.28-.4.39-.62.61-1.27,1.06-2.6,1.36-3.97.04-.17.05-.34.06-.52,0-.17-.01-.33-.04-.5-.12-.83-.75-1.5-1.57-1.68-.82-.18-1.67.18-2.12.89-.26.46-.39.98-.36,1.51h0Z"/>
      <path class="cls-1" d="M78.64,25.37c1.12.83,2.34,1.5,3.64,2,1.94.8,4.1.87,6.09.19,2.52-.98,4.56-2.93,5.65-5.4.22-.54.39-1.09.5-1.66.43-1.87-.07-3.84-1.36-5.27-1.03-1.11-2.29-1.97-3.68-2.53-1.41-.68-2.8-1.4-4.18-2.15-.62-.34-1.19-.77-1.69-1.26-.45-.45-.74-1.05-.81-1.69-.05-.61.04-1.21.24-1.79.03-.11.08-.22.12-.32.54-1.13,1.53-1.99,2.74-2.35,1.2-.36,2.5-.19,3.58.46.93.65,1.67,1.53,2.15,2.56h.91c.13-1.22.44-2.41.91-3.55-2.47-2.2-5.98-2.82-9.06-1.6-3.23,1.09-5.35,4.2-5.19,7.61,0,.73.15,1.45.43,2.11.57,1.21,1.45,2.24,2.56,3,1.78,1.21,3.75,2.13,5.82,2.73.36.1.71.24,1.04.41,1.31.63,2.11,1.98,2.03,3.43-.14,2.22-1.57,4.16-3.65,4.95-1.38.47-2.89.29-4.13-.48-1.18-.74-2.19-1.71-2.96-2.87h-.91c0,.21,0,.42-.02.63-.09.99-.36,1.95-.78,2.85h0Z"/>
    </g>
  </g>
</svg>