<?xml version="1.0" encoding="UTF-8"?>
<svg id="Layer_2" data-name="Layer 2" xmlns="http://www.w3.org/2000/svg" viewBox="0 0 58.73 72.04">
  <defs>
    <style>
      .cls-1 {
        fill: #fff;
        fill-rule: evenodd;
      }
    </style>
  </defs>
  <g id="logo_apple">
    <g>
      <path class="cls-1" d="M32.4,6.27C37.14.03,43.72,0,43.72,0c0,0,.98,5.87-3.72,11.51-5.02,6.03-10.73,5.05-10.73,5.05,0,0-1.07-4.74,3.14-10.29Z"/>
      <path class="cls-1" d="M29.87,20.67c2.44,0,6.95-3.35,12.84-3.35,10.13,0,14.11,7.2,14.11,7.2,0,0-7.79,3.98-7.79,13.65,0,10.9,9.7,14.66,9.7,14.66,0,0-6.78,19.09-15.95,19.09-4.21,0-7.48-2.84-11.92-2.84s-9,2.94-11.92,2.94C10.57,72.04,0,53.92,0,39.36s8.95-21.84,17.34-21.84c5.46,0,9.69,3.15,12.53,3.15Z"/>
    </g>
  </g>
</svg>