<?xml version="1.0" encoding="UTF-8"?>
<svg id="Layer_2" data-name="Layer 2" xmlns="http://www.w3.org/2000/svg" viewBox="0 0 91.13 32.48">
  <defs>
    <style>
      .cls-1 {
        fill: #fff;
      }
    </style>
  </defs>
  <g id="logo_nike">
    <path class="cls-1" d="M10.05,32.47c-2.72-.11-4.94-.85-6.67-2.23-.33-.26-1.12-1.05-1.39-1.39-.7-.89-1.18-1.75-1.5-2.7C-.49,23.2.01,19.34,1.94,15.1c1.65-3.63,4.19-7.23,8.62-12.22.65-.73,2.6-2.88,2.61-2.88,0,0-.1.18-.23.41-1.15,1.93-2.14,4.21-2.68,6.18-.86,3.16-.76,5.87.31,7.98.73,1.45,1.99,2.7,3.41,3.4,2.48,1.21,6.11,1.31,10.54.29.31-.07,15.42-4.08,33.59-8.92C76.27,4.5,91.13.55,91.13.55c0,0-42.21,18.07-64.12,27.44-3.47,1.48-4.4,1.86-6.03,2.43-4.17,1.46-7.91,2.16-10.93,2.04Z"/>
  </g>
</svg>