<?xml version="1.0" encoding="UTF-8"?>
<svg id="Layer_2" data-name="Layer 2" xmlns="http://www.w3.org/2000/svg" viewBox="0 0 136.93 41.27">
  <defs>
    <style>
      .cls-1 {
        fill: #fff;
      }
    </style>
  </defs>
  <g id="logo_amazon">
    <g>
      <path class="cls-1" d="M28.93,4.17c1.02-2.37,2.68-3.79,5.32-3.92,2.91-.14,4.7,1.36,5.8,3.98.14-.28.23-.51.35-.72,1.29-2.36,3.33-3.37,5.96-3.23,1.76.09,3.24.8,4.35,2.2.73.92,1.05,2,1.12,3.14.07,1.06.07,2.13.07,3.2,0,4.68,0,9.35,0,14.03,0,.84-.25,1.1-1.09,1.1-1.25,0-2.49,0-3.74,0-.75,0-1.02-.27-1.02-1,0-3.88,0-7.75,0-11.63,0-1.15,0-2.31-.08-3.46-.06-.9-.46-1.66-1.38-1.97-1.05-.35-2.03-.22-2.89.53-.78.68-1,1.6-1.08,2.56-.06.67-.08,1.34-.08,2.02,0,3.98,0,7.95,0,11.93,0,.75-.26,1.02-1,1.02-1.28,0-2.57,0-3.85,0-.7,0-.96-.27-.96-.97,0-2.29,0-4.57,0-6.86,0-2.17.02-4.34-.01-6.51-.01-.73-.11-1.47-.29-2.18-.29-1.11-1-1.66-2.05-1.74-1.24-.1-2.12.38-2.62,1.43-.45.94-.54,1.96-.54,2.97-.02,4.28-.02,8.56-.03,12.84,0,.77-.26,1.02-1.03,1.03-1.27,0-2.54,0-3.82,0-.7,0-.97-.27-.97-.96,0-7.09,0-14.18,0-21.27,0-.72.27-.99.98-.99,1.21,0,2.42,0,3.63,0,.66,0,.95.3.95.96,0,.83,0,1.67,0,2.5Z"/>
      <path class="cls-1" d="M68.82,21.27c-.3.27-.65.6-1.01.93-1.46,1.31-3.18,1.97-5.13,2.03-.99.03-1.98,0-2.94-.29-1.84-.57-3.13-1.74-3.73-3.57-.75-2.28-.65-4.54.57-6.66,1.05-1.82,2.71-2.84,4.68-3.43,1.59-.48,3.23-.67,4.87-.84.54-.06,1.09-.1,1.63-.17.11-.02.28-.16.28-.25,0-.72.02-1.45-.08-2.16-.19-1.34-.88-2-2.21-2.26-1.44-.28-3,.38-3.64,1.58-.16.3-.25.63-.35.96-.16.54-.44.76-1,.7-1.24-.12-2.48-.25-3.71-.4-.63-.07-.87-.45-.74-1.07.55-2.58,2.03-4.41,4.47-5.39,2.97-1.2,6.02-1.3,9.05-.22,2.66.95,4.06,2.91,4.13,5.71.08,3.07.07,6.15.04,9.22-.01,1.42.37,2.67,1.25,3.78.93,1.16.71,1.35-.23,2.12-.84.69-1.66,1.43-2.48,2.14-.57.5-.98.54-1.5,0-.77-.78-1.48-1.63-2.22-2.46ZM68.06,12.63c-.63.04-1.2.05-1.77.12-.53.07-1.06.16-1.57.31-2.1.64-3.11,2.07-2.95,4.17.09,1.14.46,2.14,1.64,2.57,1.19.43,2.22.06,3.1-.79.58-.56.95-1.25,1.19-2.01.45-1.41.32-2.86.35-4.37Z"/>
      <path class="cls-1" d="M13.38,21.2c-.51.45-.98.89-1.47,1.29-1.43,1.18-3.1,1.7-4.93,1.74-.91.02-1.8,0-2.68-.27-1.93-.57-3.26-1.8-3.87-3.72-.64-2.02-.58-4.04.32-5.98,1-2.14,2.79-3.33,4.99-3.99,1.59-.48,3.23-.67,4.88-.84.62-.07,1.23-.13,1.9-.2-.01-1.06.12-2.1-.26-3.1-.34-.91-1.06-1.35-1.98-1.53-1.48-.29-3.02.34-3.69,1.55-.16.28-.25.61-.34.92-.18.62-.44.82-1.07.75-1.21-.12-2.43-.25-3.64-.39-.64-.07-.89-.43-.76-1.05C1.28,3.89,2.69,2.06,5.04,1.06c3.13-1.33,6.33-1.42,9.51-.2,2.4.93,3.73,2.75,3.84,5.32.11,2.54.07,5.08.09,7.62,0,.7.02,1.4,0,2.1-.04,1.26.34,2.37,1.1,3.37.18.24.37.48.54.74.31.48.25.82-.19,1.2-.97.84-1.94,1.68-2.91,2.52-.6.51-.98.55-1.52,0-.61-.62-1.16-1.3-1.73-1.96-.14-.16-.24-.35-.38-.55ZM12.6,12.72s-.1-.09-.15-.13c-.91.11-1.83.21-2.74.34-.29.04-.57.14-.84.24-2.25.78-2.89,2.59-2.57,4.54.41,2.5,2.86,2.76,4.32,1.61.9-.7,1.47-1.65,1.65-2.75.2-1.27.23-2.57.33-3.85Z"/>
      <path class="cls-1" d="M125.08,4.56c.26-.51.52-1.03.79-1.54,2.08-3.88,8.01-3.46,9.91-.28.61,1.02.89,2.13,1,3.29.1,1.07.14,2.15.15,3.23.02,4.56,0,9.12,0,13.68,0,.74-.27,1-1.01,1.01-1.28,0-2.57,0-3.85,0-.7,0-.96-.27-.96-.97,0-4.31.01-8.61-.01-12.92,0-.83-.1-1.67-.27-2.49-.2-1.01-.79-1.73-1.87-1.91-1.1-.18-1.98.24-2.61,1.13-.6.84-.81,1.83-.92,2.83-.06.6-.08,1.22-.08,1.82,0,3.81,0,7.62,0,11.43,0,.8-.26,1.06-1.08,1.06-1.23,0-2.47,0-3.7,0-.78,0-1.03-.25-1.03-1.01,0-.71,0-1.42,0-2.13,0-6.33-.02-12.65-.03-18.98,0-.87.24-1.1,1.11-1.1,1.16,0,2.31,0,3.47,0,.68,0,.94.26.94.94,0,.96,0,1.93,0,2.89.02,0,.04,0,.05.01Z"/>
      <path class="cls-1" d="M116.35,12.46c0,2.76-.56,5.37-2.07,7.72-3.14,4.91-8.96,5.09-12.37,2.9-1.83-1.17-3.04-2.85-3.76-4.86-1.46-4.09-1.47-8.19.15-12.24.98-2.45,2.65-4.32,5.2-5.2,3.95-1.36,8.96-.37,11.41,4.76,1.04,2.19,1.43,4.51,1.43,6.91ZM110.11,12.07c-.04-.8-.06-1.6-.12-2.39-.1-1.14-.25-2.27-.7-3.34-.4-.96-1.12-1.51-2.17-1.62-1.1-.11-2,.22-2.64,1.16-.52.78-.77,1.65-.89,2.57-.31,2.43-.28,4.86.01,7.29.12,1.01.36,2,.9,2.88,1.01,1.63,3.18,1.77,4.31.22.4-.55.67-1.23.86-1.88.45-1.59.42-3.24.43-4.88Z"/>
      <path class="cls-1" d="M55.39,41.27c-13.06-.15-24.66-4.3-34.68-12.73-.36-.3-.71-.62-1.06-.93-.37-.34-.46-.75-.24-1.04.21-.28.61-.32,1.04-.07,2.41,1.39,4.9,2.63,7.46,3.72,5.28,2.24,10.76,3.83,16.42,4.78,3.6.6,7.23.94,10.89,1,7.58.13,14.97-1,22.19-3.26,2.13-.67,4.2-1.53,6.3-2.28.33-.12.73-.18,1.07-.11.78.16,1.06,1.06.5,1.62-.41.41-.9.74-1.38,1.07-4.24,2.87-8.89,4.83-13.81,6.19-4.8,1.33-9.69,2.04-14.69,2.04Z"/>
      <path class="cls-1" d="M86.49,16.28c.91.06,1.78.09,2.65.18,1.76.17,3.44.65,5.02,1.46.66.34.97.85.95,1.59-.02.98,0,1.96,0,2.93,0,.79-.51,1.1-1.21.77-4.78-2.26-9.55-2.29-14.33.01-.69.33-1.2.03-1.2-.73,0-1.24,0-2.49.03-3.73.01-.6.25-1.13.59-1.62,2.66-3.81,5.32-7.62,7.98-11.43.07-.1.13-.2.23-.36h-.47c-2.19,0-4.38,0-6.56,0-.76,0-1.01-.25-1.01-1,0-.93,0-1.85,0-2.78,0-.64.27-.9.91-.9,4.57,0,9.13,0,13.7,0,.67,0,.91.25.91.93,0,.74-.02,1.47,0,2.21.02.5-.12.93-.4,1.32-.99,1.42-1.97,2.83-2.96,4.25-1.54,2.21-3.09,4.41-4.64,6.61-.06.09-.12.18-.19.29Z"/>
      <path class="cls-1" d="M84.13,27.69c-1.64.16-3.29.32-4.93.48-.31.03-.66.14-.86-.22-.14-.24.05-.59.46-.87,1.45-1,3.06-1.57,4.78-1.88,2.17-.39,4.35-.43,6.51.03.31.06.61.18.91.27.6.18.86.6.91,1.21.1,1.35-.13,2.66-.47,3.95-.64,2.4-1.65,4.61-3.34,6.46-.28.31-.59.59-.91.87-.13.12-.29.23-.45.26-.17.03-.41.03-.52-.07-.11-.1-.15-.36-.1-.51.1-.36.27-.71.4-1.07.71-1.84,1.44-3.69,1.81-5.64.11-.59.13-1.21.13-1.81,0-.52-.3-.92-.8-1.04-.71-.17-1.44-.28-2.17-.36-.45-.05-.91,0-1.37,0,0-.02,0-.04,0-.06Z"/>
    </g>
  </g>
</svg>