<?xml version="1.0" encoding="UTF-8"?>
<svg id="Layer_2" data-name="Layer 2" xmlns="http://www.w3.org/2000/svg" viewBox="0 0 111.96 44.15">
  <defs>
    <style>
      .cls-1 {
        fill: #fff;
      }
    </style>
  </defs>
  <g id="logo_ford">
    <g>
      <path class="cls-1" d="M111.91,13.3c.12-.22,0-.38-.28-.38-1.44,0-3.33,0-4.83,0-.36,0-.54.04-.71.37-.55,1.06-7.3,11.17-8.56,13.14-.21.3-.47.26-.5-.08-.12-1.17-1.13-2.51-2.72-3.15-1.21-.49-2.39-.58-3.62-.42-2.22.3-4.2,1.47-5.94,2.79-2.62,1.99-4.88,4.57-7.8,6.48-1.59,1.04-3.78,1.94-5.23.59-1.32-1.22-1.17-3.95.85-6.05.21-.22.47-.04.43.16-.19.96.04,1.9.76,2.56.88.79,2.14.88,3.22.35,1.28-.63,2.02-1.85,2.24-3.23.34-2.15-1.32-4.04-3.39-4.2-1.68-.12-3.29.47-4.86,1.76-.78.65-1.23,1.13-1.91,2.1-.17.24-.42.26-.41-.09.08-2.75-1.06-4.3-3.33-4.34-1.76-.05-3.65.92-5.12,2.08-1.61,1.29-3.02,3.01-4.53,4.62-.19.2-.35.19-.4-.2-.05-1.82-.51-3.59-1.35-4.84-.3-.44-.93-.65-1.45-.36-.24.13-1.09.52-1.71,1.02-.3.25-.42.62-.29,1.08.81,2.72.63,5.82-.47,8.43-1.01,2.39-2.98,4.55-5.3,5.28-1.52.48-3.11.25-4.09-1.11-1.34-1.87-.8-5.11,1.21-7.81,1.77-2.38,4.34-3.88,6.89-4.85.3-.12.36-.31.28-.57-.14-.42-.36-.99-.45-1.25-.23-.62-.89-.73-1.7-.64-1.86.22-3.53.85-5.19,1.74-4.34,2.32-6.51,6.82-7.46,9.22-.46,1.16-.85,1.88-1.36,2.52-.68.86-1.54,1.64-3.11,3.02-.14.13-.24.39-.13.64.16.33.98,1.48,1.2,1.59.25.13.55-.05.67-.14,1.1-.74,2.41-1.92,3.05-2.73.23-.27.46-.16.58.26.6,2.15,2.17,3.89,4.34,4.62,3.98,1.34,8.1-.6,11.22-3.98,1.98-2.15,2.69-3.53,3.45-4.47,1.29-1.59,3.82-5.16,6.84-7.44,1.11-.84,2.42-1.49,3.08-1.06.53.34.7,1.14-.15,2.68-3.08,5.62-7.61,12.23-8.44,13.83-.15.28-.02.5.27.5,1.61,0,3.21,0,4.67,0,.24-.01.35-.12.47-.3,2.36-3.7,4.59-7.22,6.97-10.86.13-.21.26-.05.26.04.05.85.26,2,.76,2.76.9,1.4,2.18,2,3.59,2.02,1.13.01,1.69-.16,2.91-.61.85-.32,1.65-.75,2.39-1.28.35-.25.42.17.41.23-.55,2.94.13,6.42,3.05,7.86,3.5,1.72,7.33-.7,9.54-2.88.22-.21.45-.19.47.26.04.84.42,1.83,1.11,2.52,1.85,1.86,5.58,1.12,9.33-1.78,2.41-1.86,4.92-4.48,7.2-7.26.08-.11.15-.28-.02-.45-.34-.36-.85-.78-1.19-1.1-.16-.13-.39-.09-.52,0-2.33,2.21-4.42,4.74-7.46,6.83-1.02.72-2.65,1.29-3.38.3-.29-.38-.25-.92.03-1.62.89-2.21,14.88-23.52,15.61-24.77M93.41,31.17c.03.16.24.32.45.4.07.03.11.08.03.25-.59,1.28-1.14,2.01-1.89,3.12-.68,1.02-1.46,1.82-2.39,2.59-1.41,1.17-3.37,2.44-4.99,1.58-.72-.37-1.03-1.38-1.01-2.2.04-2.29,1.05-4.65,2.93-6.96,2.3-2.83,4.84-4.29,6.5-3.5,1.72.82,1.17,2.82.4,4.39-.06.12-.07.22-.03.32"/>
      <path class="cls-1" d="M10.4,43.3c-5.22.04-9.81-3.19-10.34-8.77-.29-3.09.58-5.85,2.33-8.12,1.55-2.02,4.18-3.7,6.4-4.12.73-.13,1.7-.05,2.1.43.63.73.45,1.54-.18,1.86-1.7.87-3.74,2.35-4.75,4.38-.82,1.65-.99,3.65.26,5.54,2.1,3.16,7.94,3.25,13.37-1.8,1.35-1.24,2.55-2.42,3.78-3.83,2.39-2.74,3.19-3.74,6.37-8.15.04-.05.05-.12.03-.15-.03-.06-.07-.07-.17-.08-2.12.06-3.97.69-5.77,2.04-.52.38-1.26.32-1.59-.17-.36-.56-.1-1.29.5-1.71,2.89-2.01,6.05-2.38,9.28-2.92,0,0,.23,0,.41-.23,1.32-1.7,2.32-3.23,3.74-4.95,1.42-1.74,3.26-3.34,4.67-4.55,1.96-1.69,3.22-2.25,4.5-2.95.34-.18-.04-.39-.15-.39-7.14-1.34-14.55-3.08-21.63-.45-4.91,1.83-7.06,5.73-6.02,8.32.73,1.84,3.16,2.14,5.43,1.03,1.98-.98,3.67-2.48,4.87-4.33.69-1.06,2.15-.3,1.36,1.55-2.07,4.87-6.03,8.74-10.86,8.9-4.11.14-6.76-2.88-6.75-6.61.01-7.35,8.2-12.19,16.8-12.92,10.36-.85,20.17,1.91,30.45,3.15,7.88.95,15.44.97,23.35-.85.93-.2,1.59.39,1.53,1.34-.08,1.37-1.14,2.68-3.74,4.11-2.97,1.63-6.07,2.12-9.31,2.15-7.84.06-15.14-2.99-22.7-4.63.01.33.1.72-.18.93-4.18,3.09-7.97,6.22-10.5,10.62-.08.1-.04.2.11.19,2.2-.12,4.18-.17,6.23-.34.36-.03.37-.12.34-.38-.18-1.52.26-3.25,1.6-4.44,1.37-1.22,3.08-1.36,4.21-.48,1.29,1.01,1.18,2.81.47,4.17-.72,1.38-1.9,2.11-3.04,2.46,0,0-.24.05-.2.27.04.34,1.59,1.21,1.73,1.43.13.22.06.55-.17.81-.16.19-.42.37-.75.36-.27,0-.43-.1-.77-.28-.7-.37-1.57-.99-2.15-1.73-.2-.25-.3-.25-.79-.22-2.22.13-5.69.46-8.03.76-.57.07-.65.18-.77.37-3.74,6.17-7.74,12.83-12.13,17.29-4.71,4.79-8.62,6.04-12.77,6.08M46.07,15.87c.06.32.18.38.33.35.71-.14,1.49-.73,1.95-1.41.42-.62.62-1.51.2-1.87-.37-.32-.98-.23-1.43.17-.89.79-1.16,1.91-1.05,2.75"/>
    </g>
  </g>
</svg>