<?xml version="1.0" encoding="UTF-8"?>
<svg id="Layer_2" data-name="Layer 2" xmlns="http://www.w3.org/2000/svg" viewBox="0 0 173 21.02">
  <defs>
    <style>
      .cls-1 {
        fill: #fff;
      }
    </style>
  </defs>
  <g id="logo_tiffany">
    <g>
      <path class="cls-1" d="M16.86.38l.03,5.4c-.04.05-.34.09-.36.05-1.3-3.23-2.31-4.88-6.24-4.88h-.45v17.11c0,.85.1,1.45.53,1.85.3.27,1.4.4,2.29.4.05,0,.05.42,0,.42H4.24c-.05,0-.05-.42,0-.42.89,0,1.99-.13,2.29-.4.43-.4.53-.99.53-1.85V.95h-.45C2.67.95,1.66,2.6.36,5.83c-.02.04-.32,0-.36-.05L.03.38h16.83Z"/>
      <path class="cls-1" d="M21.9,18.25c0,.78-.1,1.4-.49,1.73-.33.27-1,.35-1.98.35-.05,0-.06.39,0,.39h7.61c.06,0,.05-.39,0-.39-.98,0-1.65-.07-1.98-.35-.4-.33-.49-.95-.49-1.73V7.21c0-.78.1-1.4.49-1.73.33-.27,1-.35,1.98-.35.05,0,.06-.39,0-.39h-7.61c-.06,0-.05.39,0,.39.98,0,1.65.07,1.98.35.4.33.49.95.49,1.73v11.04Z"/>
      <path class="cls-1" d="M41.97,4.73h-11.78c-.05,0-.05.39,0,.39.89,0,1.53.07,1.82.35.36.33.45.95.45,1.73v11.04c0,.78-.09,1.4-.45,1.73-.3.27-.93.35-1.82.35-.05,0-.05.39,0,.39h7.5c.06,0,.05-.39,0-.39-.98,0-1.75-.07-2.08-.35-.39-.33-.49-.95-.49-1.73v-5.3h1.19c1.23,0,1.84.2,2.36.59.43.33.77,1.03.77,1.68,0,.05.23.06.34,0v-5.09c-.11-.06-.34-.05-.34,0,0,.65-.34,1.39-.77,1.72-.52.4-1.13.61-2.36.61h-1.19v-7.2h1.44c3.63,0,4.66,1.73,5.2,3.73.01.05.29,0,.28-.05l-.07-4.21Z"/>
      <path class="cls-1" d="M56.21,4.73h-11.78c-.05,0-.05.39,0,.39.89,0,1.52.07,1.82.35.36.33.45.95.45,1.73v11.04c0,.78-.09,1.4-.45,1.73-.3.27-.93.35-1.82.35-.05,0-.05.39,0,.39h7.5c.06,0,.05-.39,0-.39-.98,0-1.75-.07-2.08-.35-.39-.33-.49-.95-.49-1.73v-5.3h1.19c1.23,0,1.84.2,2.36.59.43.33.77,1.03.77,1.68,0,.05.23.06.34,0v-5.09c-.11-.06-.34-.05-.34,0,0,.65-.34,1.39-.77,1.72-.52.4-1.13.61-2.36.61h-1.19v-7.2h1.44c3.63,0,4.66,1.73,5.2,3.73.01.05.29,0,.28-.05l-.07-4.21Z"/>
      <path class="cls-1" d="M60.97,14.47l2.41-6.56,2.45,6.56h-4.85M72.16,20.35c-1.27-.15-1.67-.59-2.25-2.09l-5.19-13.92c0-.06-.65-.05-.65,0l-5.08,13.62c-.69,1.79-1.22,2.07-2.76,2.39-.05.01-.05.38,0,.38h4.84c.05,0,.05-.38,0-.38-1.4-.09-2.04-.64-1.37-2.39l1.08-2.96h5.23l1.16,3.04c.58,1.5.02,2.21-1.47,2.31-.05,0-.05.38,0,.38h6.45c.05,0,.05-.38,0-.38Z"/>
      <path class="cls-1" d="M89.28,4.73h-5.54c-.05,0-.05.39,0,.39,1.21.11,1.79.22,2.11.76.36.62.52,1.67.52,3.05v7.64l-9.05-11.85h-4.55c-.05,0-.05.39,0,.39,1.68,0,2.5.94,2.5,2.31v9.14c0,1.39-.09,2.38-.45,3-.31.53-.64.66-1.77.76-.05,0-.05.39,0,.39h5.48c.05,0,.05-.39,0-.39-1.21-.11-1.79-.22-2.11-.76-.36-.61-.52-1.61-.52-3V7.27l10.59,13.61c.09.12.51.11.51,0v-11.94c0-1.39.09-2.44.45-3.05.31-.54.62-.65,1.82-.76.05,0,.05-.39,0-.39Z"/>
      <path class="cls-1" d="M105.48,4.73h-4.77c-.05,0-.05.39,0,.39,1.47.05,1.99.59,1.46,1.65l-3.2,6.02-3.5-6.12c-.52-1.01.06-1.55,1.52-1.55.05,0,.05-.39,0-.39h-6.64c-.05,0-.04.39,0,.39,1.28.09,1.63.4,2.15,1.41l4.12,7.31v4.41c0,.78-.09,1.4-.45,1.73-.3.27-.98.35-1.87.35-.05,0-.06.39,0,.39h7.3c.06,0,.05-.39,0-.39-.89,0-1.57-.07-1.86-.35-.36-.33-.45-.95-.45-1.73v-4.88l3.66-6.64c.62-1.17,1.24-1.5,2.53-1.61.05,0,.06-.39,0-.39Z"/>
      <path class="cls-1" d="M112.02,15.13c0-2.03.95-3.48,2.72-4.31l5.21,6.88c-1.22,1.16-2.64,1.86-3.93,1.86-2.25,0-4.01-1.73-4.01-4.44M117.29,2.42c1.48,0,2.36,1.11,2.36,2.9,0,1.62-1.28,3.41-3.08,4.11-1.36-1.86-1.69-3.06-1.69-4.17,0-1.99.98-2.84,2.4-2.84M127.8,10.94h-6.4c-.06.11-.05.37,0,.37,1.61.03,2.39.65,1.79,1.91-.45.95-.95,1.82-1.56,2.66l-4.66-5.97c2.77-1.34,4.21-2.7,4.21-4.85,0-1.56-1.61-3.26-3.99-3.26s-4.55,1.98-4.55,4.18c0,1.42.41,2.45,1.79,4.39-2.76.95-5.12,3.17-5.12,5.73,0,2.87,2.29,4.92,5.34,4.92,2.24,0,4.17-1.19,5.71-2.86l1.91,2.57h4.87c.06,0,.04-.39,0-.39-.85-.02-1.16-.1-1.7-.37-.66-.32-1.21-.89-1.92-1.72l-1.52-1.95c.88-1.15,1.64-2.4,2.45-3.52.62-.86,1.29-1.27,3.36-1.44.05,0,.06-.29,0-.4Z"/>
      <path class="cls-1" d="M150.04,14.65c0-.06-.33-.1-.36.02-.74,3.56-3.38,5.74-5.79,5.74-4.6,0-7.55-4.06-7.55-9.8s2.57-9.91,7.09-9.91c2.67,0,5.36,2.13,6.11,5.48,0,.05.37,0,.36-.05l-.17-6.1s-.38-.06-.38,0c-.1.89-.66,1.38-1.56,1.04-1.3-.5-2.77-.98-4.31-.98-5.77,0-10.69,4.72-10.69,10.51s4.84,10.4,10.69,10.4c2.53,0,4.57-.53,6.26-1.71l.29-4.66Z"/>
      <path class="cls-1" d="M165.5,12.73c0,4.51-1.67,7.73-4.88,7.73s-4.89-3.21-4.89-7.73,1.67-7.73,4.89-7.73,4.88,3.21,4.88,7.73M152.6,12.73c0,4.52,3.54,8.22,8.01,8.22s8.01-3.7,8.01-8.22-3.54-8.22-8.01-8.22-8.01,3.7-8.01,8.22Z"/>
      <path class="cls-1" d="M171.35,17.59c.92,0,1.65.74,1.65,1.68s-.73,1.68-1.65,1.68-1.65-.74-1.65-1.68.73-1.68,1.65-1.68Z"/>
    </g>
  </g>
</svg>