<?xml version="1.0" encoding="UTF-8"?>
<svg id="Layer_2" data-name="Layer 2" xmlns="http://www.w3.org/2000/svg" viewBox="0 0 153.56 32.79">
  <defs>
    <style>
      .cls-1 {
        fill: #fff;
      }
    </style>
  </defs>
  <g id="logo_microsoft">
    <g>
      <path class="cls-1" d="M0,15.6h15.6c0-5.2,0-10.4,0-15.6H0v15.6Z"/>
      <path class="cls-1" d="M17.19,15.6c5.2,0,10.4,0,15.6,0,0-5.2,0-10.4,0-15.6h-15.6c0,5.2,0,10.4,0,15.6Z"/>
      <path class="cls-1" d="M150.22,12.14c-.03-1.41,0-2.82-.01-4.22-1.11.34-2.22.69-3.34,1.01-.03,1.07,0,2.14-.01,3.21-1.65,0-3.29,0-4.94,0,.02-.84-.06-1.69.06-2.53.1-.66.48-1.32,1.13-1.57.81-.33,1.72-.11,2.49.23,0-.96,0-1.93,0-2.89-1.62-.45-3.48-.36-4.92.58-.93.59-1.6,1.54-1.9,2.6-.36,1.17-.18,2.4-.23,3.6-.78,0-1.56-.01-2.34,0,0,.9,0,1.8,0,2.7.78.02,1.57,0,2.35.01,0,3.79,0,7.58,0,11.38h3.37c0-3.79,0-7.59,0-11.38,1.65,0,3.29,0,4.94,0,0,2.42,0,4.84,0,7.25.01,1.13.21,2.33.95,3.22.65.79,1.67,1.15,2.66,1.22,1.04.07,2.12-.05,3.08-.47v-2.77c-.74.49-1.76.69-2.57.24-.48-.27-.67-.83-.73-1.35-.1-.87-.04-1.75-.06-2.62,0-1.58,0-3.15,0-4.73,1.12,0,2.23-.03,3.35.02v-2.74c-1.11,0-2.23,0-3.34,0Z"/>
      <path class="cls-1" d="M68.44,6.14c-.94.11-1.74.96-1.71,1.91-.04.91.69,1.72,1.57,1.88.84.18,1.81-.17,2.25-.94.39-.68.29-1.61-.23-2.19-.45-.53-1.19-.76-1.87-.66Z"/>
      <path class="cls-1" d="M59.16,6.57c-1.95,4.85-3.94,9.69-5.91,14.53-.41-.96-.77-1.94-1.17-2.91-1.53-3.88-3.07-7.75-4.59-11.63h-4.91c0,6.56,0,13.12,0,19.67,1.07,0,2.14,0,3.21,0,0-2.94,0-5.87,0-8.81.01-2.12-.02-4.24.02-6.36.06.1.12.2.17.3,2,4.96,3.99,9.92,6,14.88.81-.01,1.62.01,2.42-.01,1.94-4.96,3.93-9.9,5.88-14.85.05-.11.11-.21.18-.31.01.22.02.43.02.65,0,4.84,0,9.68,0,14.52,1.13.02,2.27,0,3.4,0,0-6.56,0-13.11,0-19.67-1.57,0-3.15-.02-4.72,0Z"/>
      <path class="cls-1" d="M82.73,12.13c-1.63-.46-3.38-.48-5.01-.01-1.49.43-2.87,1.35-3.74,2.64-1.05,1.52-1.42,3.42-1.33,5.23.08,1.75.77,3.5,2.04,4.72,1.17,1.14,2.78,1.75,4.39,1.83,1.58.08,3.23-.13,4.61-.95-.01-1.02,0-2.04,0-3.06-.89.65-1.93,1.12-3.03,1.24-1.11.08-2.31-.18-3.16-.94-.82-.7-1.25-1.75-1.36-2.8-.15-1.35.05-2.81.89-3.91.66-.89,1.7-1.46,2.8-1.56,1.38-.17,2.76.35,3.85,1.18.01-1.08,0-2.15.01-3.23-.3-.18-.63-.31-.96-.4Z"/>
      <path class="cls-1" d="M105.41,12.45c-1.5-.68-3.21-.78-4.83-.57-1.7.21-3.36,1.01-4.44,2.37-.99,1.21-1.47,2.77-1.56,4.31-.14,1.82.17,3.75,1.24,5.27.91,1.31,2.35,2.21,3.9,2.54,1.3.27,2.65.27,3.95,0,1.52-.31,2.93-1.15,3.87-2.39.92-1.17,1.38-2.64,1.48-4.11.11-1.5-.05-3.06-.67-4.45-.59-1.3-1.64-2.39-2.95-2.98ZM105.1,21.9c-.32.73-.91,1.34-1.66,1.63-.87.33-1.85.35-2.75.12-.92-.24-1.69-.9-2.11-1.74-.54-1.08-.62-2.34-.51-3.53.1-1.08.48-2.2,1.3-2.94.6-.56,1.41-.83,2.22-.88,1.01-.07,2.09.22,2.82.96.78.77,1.08,1.88,1.16,2.94.06,1.16.01,2.37-.47,3.45Z"/>
      <path class="cls-1" d="M117.67,18.55c-.99-.57-2.13-.85-3.09-1.48-.56-.36-.72-1.13-.49-1.73.29-.6.98-.87,1.61-.89,1.25-.04,2.51.34,3.54,1.05,0-1.03,0-2.07,0-3.1-1.48-.56-3.11-.76-4.67-.49-1.32.24-2.61.92-3.36,2.06-.65.98-.74,2.24-.47,3.37.18.76.65,1.44,1.26,1.91.87.67,1.92,1.04,2.91,1.49.53.25,1.09.5,1.47.96.41.6.28,1.57-.4,1.92-.72.34-1.56.34-2.33.21-1.11-.19-2.15-.66-3.06-1.32-.01,1.09,0,2.17,0,3.26,1.08.48,2.26.71,3.43.79,1.65.06,3.45-.26,4.69-1.43,1.31-1.15,1.62-3.2.88-4.75-.4-.83-1.15-1.4-1.93-1.84Z"/>
      <path class="cls-1" d="M132.48,12.55c-1.54-.78-3.32-.89-5.01-.68-1.36.17-2.69.69-3.73,1.6-1.26,1.09-2.01,2.69-2.23,4.33-.21,1.64-.14,3.36.53,4.9.64,1.5,1.91,2.73,3.43,3.33,1.5.59,3.17.66,4.75.4,1.62-.27,3.15-1.12,4.15-2.42,1.07-1.35,1.53-3.1,1.53-4.8.02-1.14-.12-2.3-.52-3.37-.52-1.4-1.56-2.61-2.9-3.28ZM132.33,20.61c-.13.74-.39,1.48-.87,2.07-.49.59-1.22.95-1.97,1.06-.81.12-1.66.06-2.41-.26-.82-.34-1.45-1.05-1.78-1.86-.4-.97-.48-2.04-.4-3.07.08-1,.36-2.03,1.02-2.81.6-.73,1.53-1.13,2.46-1.18.95-.07,1.97.15,2.7.8.68.56,1.05,1.4,1.22,2.24.19.99.19,2.02.03,3.01Z"/>
      <path class="cls-1" d="M91.24,12.35c-.85.48-1.38,1.33-1.74,2.21,0-.81,0-1.61,0-2.42-1.11,0-2.22-.01-3.33,0,0,4.7,0,9.4,0,14.09h3.33c0-2.25,0-4.5,0-6.74-.03-.98.05-1.99.48-2.88.39-.84,1.15-1.58,2.11-1.69.79-.08,1.62.1,2.28.54,0-1.13,0-2.25,0-3.38-1.02-.34-2.2-.3-3.13.26Z"/>
      <path class="cls-1" d="M67.03,12.14c0,4.7,0,9.4,0,14.1h3.35c0-4.7,0-9.39,0-14.09-1.12-.02-2.24-.01-3.36,0Z"/>
      <path class="cls-1" d="M0,32.79h15.6c0-5.2,0-10.4,0-15.6-5.2,0-10.4,0-15.6,0v15.6Z"/>
      <path class="cls-1" d="M17.19,32.79h15.6v-15.6c-5.2,0-10.4,0-15.6,0,0,5.2,0,10.4,0,15.6Z"/>
    </g>
  </g>
</svg>