<?xml version="1.0" encoding="UTF-8"?>
<svg id="Layer_2" data-name="Layer 2" xmlns="http://www.w3.org/2000/svg" viewBox="0 0 83.11 83.11">
  <defs>
    <style>
      .cls-1 {
        fill: none;
        stroke: #fff;
        stroke-miterlimit: 10;
        stroke-width: 3px;
      }

      .cls-2 {
        fill: #fff;
      }
    </style>
  </defs>
  <g id="Volume">
    <g>
      <path class="cls-2" d="M43.36,25.03c-.64-.34-1.42-.31-2.02.1l-11.33,7.55h-5.32c-1.09,0-1.97.88-1.97,1.97v11.83c0,1.09.88,1.97,1.97,1.97h5.32l11.33,7.55c.92.59,2.15.33,2.74-.59.2-.31.31-.67.32-1.05v-27.6c0-.73-.4-1.4-1.04-1.74Z"/>
      <rect class="cls-2" x="48.32" y="32.89" width="4.01" height="16.8" rx="2" ry="2"/>
      <rect class="cls-2" x="55.1" y="29.85" width="4.01" height="24.06" rx="2" ry="2"/>
      <circle class="cls-1" cx="41.56" cy="41.56" r="40.06"/>
    </g>
  </g>
</svg>