<?xml version="1.0" encoding="UTF-8"?>
<svg id="Layer_2" data-name="Layer 2" xmlns="http://www.w3.org/2000/svg" viewBox="0 0 83.11 83.11">
  <defs>
    <style>
      .cls-1 {
        fill: none;
        stroke: #fff;
        stroke-miterlimit: 10;
        stroke-width: 3px;
      }

      .cls-2 {
        fill: #fff;
      }
    </style>
  </defs>
  <g id="Close">
    <g>
      <circle class="cls-1" cx="41.56" cy="41.56" r="40.06"/>
      <path class="cls-2" d="M29.15,53.97c.68.69,1.58,1.03,2.47,1.03s1.79-.35,2.47-1.03l7.46-7.46,7.46,7.46c.68.69,1.58,1.03,2.47,1.03s1.79-.35,2.47-1.03c1.37-1.37,1.37-3.58,0-4.95h.02l-7.46-7.46,7.46-7.46c1.37-1.37,1.37-3.58,0-4.95s-3.58-1.37-4.95,0l-7.46,7.46-7.46-7.46c-1.37-1.37-3.58-1.37-4.95,0s-1.37,3.58,0,4.95l7.46,7.46-7.46,7.46c-1.37,1.37-1.37,3.58,0,4.95Z"/>
    </g>
  </g>
</svg>